<mxfile host="app.diagrams.net" modified="2020-07-19T08:41:16.465Z" agent="5.0 (Macintosh; Intel Mac OS X 10_15_5) AppleWebKit/537.36 (KHTML, like Gecko) Chrome/83.0.4103.116 Safari/537.36" etag="UBWEOGMaZrgpRU1ky7vQ" version="13.4.6" type="github">
  <diagram id="wM3jSzTMBPwH01MoTWMi" name="Page-1">
    <mxGraphModel dx="2066" dy="1105" grid="1" gridSize="10" guides="1" tooltips="1" connect="1" arrows="1" fold="1" page="1" pageScale="1" pageWidth="827" pageHeight="1169" math="0" shadow="0">
      <root>
        <mxCell id="0" />
        <mxCell id="1" parent="0" />
        <mxCell id="iAdYFZtK8A0-VhXGKXnv-1" value="CPU" style="rounded=0;whiteSpace=wrap;html=1;" vertex="1" parent="1">
          <mxGeometry x="160" y="210" width="120" height="60" as="geometry" />
        </mxCell>
        <mxCell id="iAdYFZtK8A0-VhXGKXnv-2" value="Local APIC" style="rounded=0;whiteSpace=wrap;html=1;" vertex="1" parent="1">
          <mxGeometry x="160" y="270" width="120" height="30" as="geometry" />
        </mxCell>
        <mxCell id="iAdYFZtK8A0-VhXGKXnv-3" value="&lt;meta charset=&quot;utf-8&quot;&gt;&lt;span style=&quot;color: rgb(0, 0, 0); font-family: helvetica; font-size: 12px; font-style: normal; font-weight: 400; letter-spacing: normal; text-align: center; text-indent: 0px; text-transform: none; word-spacing: 0px; background-color: rgb(248, 249, 250); display: inline; float: none;&quot;&gt;CPU&lt;/span&gt;" style="rounded=0;whiteSpace=wrap;html=1;" vertex="1" parent="1">
          <mxGeometry x="320" y="210" width="120" height="60" as="geometry" />
        </mxCell>
        <mxCell id="iAdYFZtK8A0-VhXGKXnv-4" value="&lt;meta charset=&quot;utf-8&quot;&gt;&lt;span style=&quot;color: rgb(0, 0, 0); font-family: helvetica; font-size: 12px; font-style: normal; font-weight: 400; letter-spacing: normal; text-align: center; text-indent: 0px; text-transform: none; word-spacing: 0px; background-color: rgb(248, 249, 250); display: inline; float: none;&quot;&gt;Local APIC&lt;/span&gt;" style="rounded=0;whiteSpace=wrap;html=1;" vertex="1" parent="1">
          <mxGeometry x="320" y="270" width="120" height="30" as="geometry" />
        </mxCell>
        <mxCell id="iAdYFZtK8A0-VhXGKXnv-5" value="&lt;meta charset=&quot;utf-8&quot;&gt;&lt;span style=&quot;color: rgb(0, 0, 0); font-family: helvetica; font-size: 12px; font-style: normal; font-weight: 400; letter-spacing: normal; text-align: center; text-indent: 0px; text-transform: none; word-spacing: 0px; background-color: rgb(248, 249, 250); display: inline; float: none;&quot;&gt;CPU&lt;/span&gt;" style="rounded=0;whiteSpace=wrap;html=1;" vertex="1" parent="1">
          <mxGeometry x="480" y="210" width="120" height="60" as="geometry" />
        </mxCell>
        <mxCell id="iAdYFZtK8A0-VhXGKXnv-6" value="&lt;meta charset=&quot;utf-8&quot;&gt;&lt;span style=&quot;color: rgb(0, 0, 0); font-family: helvetica; font-size: 12px; font-style: normal; font-weight: 400; letter-spacing: normal; text-align: center; text-indent: 0px; text-transform: none; word-spacing: 0px; background-color: rgb(248, 249, 250); display: inline; float: none;&quot;&gt;Local APIC&lt;/span&gt;" style="rounded=0;whiteSpace=wrap;html=1;" vertex="1" parent="1">
          <mxGeometry x="480" y="270" width="120" height="30" as="geometry" />
        </mxCell>
        <mxCell id="iAdYFZtK8A0-VhXGKXnv-7" value="&lt;meta charset=&quot;utf-8&quot;&gt;&lt;span style=&quot;color: rgb(0, 0, 0); font-family: helvetica; font-size: 12px; font-style: normal; font-weight: 400; letter-spacing: normal; text-align: center; text-indent: 0px; text-transform: none; word-spacing: 0px; background-color: rgb(248, 249, 250); display: inline; float: none;&quot;&gt;CPU&lt;/span&gt;" style="rounded=0;whiteSpace=wrap;html=1;" vertex="1" parent="1">
          <mxGeometry x="640" y="210" width="120" height="60" as="geometry" />
        </mxCell>
        <mxCell id="iAdYFZtK8A0-VhXGKXnv-8" value="&lt;meta charset=&quot;utf-8&quot;&gt;&lt;span style=&quot;color: rgb(0, 0, 0); font-family: helvetica; font-size: 12px; font-style: normal; font-weight: 400; letter-spacing: normal; text-align: center; text-indent: 0px; text-transform: none; word-spacing: 0px; background-color: rgb(248, 249, 250); display: inline; float: none;&quot;&gt;Local APIC&lt;/span&gt;" style="rounded=0;whiteSpace=wrap;html=1;" vertex="1" parent="1">
          <mxGeometry x="640" y="270" width="120" height="30" as="geometry" />
        </mxCell>
        <mxCell id="iAdYFZtK8A0-VhXGKXnv-9" value="" style="endArrow=none;html=1;strokeWidth=2;" edge="1" parent="1">
          <mxGeometry width="50" height="50" relative="1" as="geometry">
            <mxPoint x="160" y="360" as="sourcePoint" />
            <mxPoint x="760" y="360" as="targetPoint" />
          </mxGeometry>
        </mxCell>
        <mxCell id="iAdYFZtK8A0-VhXGKXnv-11" value="" style="endArrow=classic;startArrow=classic;html=1;strokeWidth=2;entryX=0.25;entryY=1;entryDx=0;entryDy=0;" edge="1" parent="1" target="iAdYFZtK8A0-VhXGKXnv-2">
          <mxGeometry width="50" height="50" relative="1" as="geometry">
            <mxPoint x="190" y="360" as="sourcePoint" />
            <mxPoint x="240" y="300" as="targetPoint" />
          </mxGeometry>
        </mxCell>
        <mxCell id="iAdYFZtK8A0-VhXGKXnv-12" value="" style="endArrow=classic;startArrow=classic;html=1;strokeWidth=2;entryX=0.25;entryY=1;entryDx=0;entryDy=0;" edge="1" parent="1">
          <mxGeometry width="50" height="50" relative="1" as="geometry">
            <mxPoint x="240" y="360" as="sourcePoint" />
            <mxPoint x="240" y="300" as="targetPoint" />
          </mxGeometry>
        </mxCell>
        <mxCell id="iAdYFZtK8A0-VhXGKXnv-13" value="" style="endArrow=classic;startArrow=classic;html=1;strokeWidth=2;entryX=0.25;entryY=1;entryDx=0;entryDy=0;" edge="1" parent="1">
          <mxGeometry width="50" height="50" relative="1" as="geometry">
            <mxPoint x="360" y="360" as="sourcePoint" />
            <mxPoint x="360" y="300" as="targetPoint" />
          </mxGeometry>
        </mxCell>
        <mxCell id="iAdYFZtK8A0-VhXGKXnv-14" value="" style="endArrow=classic;startArrow=classic;html=1;strokeWidth=2;entryX=0.25;entryY=1;entryDx=0;entryDy=0;" edge="1" parent="1">
          <mxGeometry width="50" height="50" relative="1" as="geometry">
            <mxPoint x="400" y="360" as="sourcePoint" />
            <mxPoint x="400" y="300" as="targetPoint" />
          </mxGeometry>
        </mxCell>
        <mxCell id="iAdYFZtK8A0-VhXGKXnv-15" value="" style="endArrow=classic;startArrow=classic;html=1;strokeWidth=2;entryX=0.25;entryY=1;entryDx=0;entryDy=0;" edge="1" parent="1">
          <mxGeometry width="50" height="50" relative="1" as="geometry">
            <mxPoint x="520" y="360" as="sourcePoint" />
            <mxPoint x="520" y="300" as="targetPoint" />
          </mxGeometry>
        </mxCell>
        <mxCell id="iAdYFZtK8A0-VhXGKXnv-16" value="" style="endArrow=classic;startArrow=classic;html=1;strokeWidth=2;entryX=0.25;entryY=1;entryDx=0;entryDy=0;" edge="1" parent="1">
          <mxGeometry width="50" height="50" relative="1" as="geometry">
            <mxPoint x="560" y="360" as="sourcePoint" />
            <mxPoint x="560" y="300" as="targetPoint" />
          </mxGeometry>
        </mxCell>
        <mxCell id="iAdYFZtK8A0-VhXGKXnv-17" value="" style="endArrow=classic;startArrow=classic;html=1;strokeWidth=2;entryX=0.25;entryY=1;entryDx=0;entryDy=0;" edge="1" parent="1">
          <mxGeometry width="50" height="50" relative="1" as="geometry">
            <mxPoint x="680" y="360" as="sourcePoint" />
            <mxPoint x="680" y="300" as="targetPoint" />
          </mxGeometry>
        </mxCell>
        <mxCell id="iAdYFZtK8A0-VhXGKXnv-18" value="" style="endArrow=classic;startArrow=classic;html=1;strokeWidth=2;entryX=0.25;entryY=1;entryDx=0;entryDy=0;" edge="1" parent="1">
          <mxGeometry width="50" height="50" relative="1" as="geometry">
            <mxPoint x="720" y="360" as="sourcePoint" />
            <mxPoint x="720" y="300" as="targetPoint" />
          </mxGeometry>
        </mxCell>
        <mxCell id="2" value="&lt;font style=&quot;font-size: 14px&quot;&gt;Interrupt&lt;br&gt;Message&lt;/font&gt;" style="text;html=1;align=center;verticalAlign=middle;resizable=0;points=[];autosize=1;" vertex="1" parent="1">
          <mxGeometry x="120" y="310" width="70" height="40" as="geometry" />
        </mxCell>
        <mxCell id="iAdYFZtK8A0-VhXGKXnv-19" value="&lt;font style=&quot;font-size: 14px&quot;&gt;Interrupt&lt;br&gt;Message&lt;/font&gt;" style="text;html=1;align=center;verticalAlign=middle;resizable=0;points=[];autosize=1;" vertex="1" parent="1">
          <mxGeometry x="290" y="310" width="70" height="40" as="geometry" />
        </mxCell>
        <mxCell id="iAdYFZtK8A0-VhXGKXnv-20" value="&lt;font style=&quot;font-size: 14px&quot;&gt;Interrupt&lt;br&gt;Message&lt;/font&gt;" style="text;html=1;align=center;verticalAlign=middle;resizable=0;points=[];autosize=1;" vertex="1" parent="1">
          <mxGeometry x="450" y="310" width="70" height="40" as="geometry" />
        </mxCell>
        <mxCell id="iAdYFZtK8A0-VhXGKXnv-21" value="&lt;font style=&quot;font-size: 14px&quot;&gt;Interrupt&lt;br&gt;Message&lt;/font&gt;" style="text;html=1;align=center;verticalAlign=middle;resizable=0;points=[];autosize=1;" vertex="1" parent="1">
          <mxGeometry x="610" y="310" width="70" height="40" as="geometry" />
        </mxCell>
        <mxCell id="iAdYFZtK8A0-VhXGKXnv-22" value="&lt;font style=&quot;font-size: 14px&quot;&gt;IPIs&lt;/font&gt;" style="text;html=1;align=center;verticalAlign=middle;resizable=0;points=[];autosize=1;" vertex="1" parent="1">
          <mxGeometry x="240" y="320" width="40" height="20" as="geometry" />
        </mxCell>
        <mxCell id="iAdYFZtK8A0-VhXGKXnv-23" value="&lt;font style=&quot;font-size: 14px&quot;&gt;IPIs&lt;/font&gt;" style="text;html=1;align=center;verticalAlign=middle;resizable=0;points=[];autosize=1;" vertex="1" parent="1">
          <mxGeometry x="394" y="320" width="40" height="20" as="geometry" />
        </mxCell>
        <mxCell id="iAdYFZtK8A0-VhXGKXnv-24" value="&lt;font style=&quot;font-size: 14px&quot;&gt;IPIs&lt;/font&gt;" style="text;html=1;align=center;verticalAlign=middle;resizable=0;points=[];autosize=1;" vertex="1" parent="1">
          <mxGeometry x="560" y="320" width="40" height="20" as="geometry" />
        </mxCell>
        <mxCell id="iAdYFZtK8A0-VhXGKXnv-25" value="&lt;font style=&quot;font-size: 14px&quot;&gt;IPIs&lt;/font&gt;" style="text;html=1;align=center;verticalAlign=middle;resizable=0;points=[];autosize=1;" vertex="1" parent="1">
          <mxGeometry x="720" y="320" width="40" height="20" as="geometry" />
        </mxCell>
        <mxCell id="iAdYFZtK8A0-VhXGKXnv-26" value="" style="rounded=0;whiteSpace=wrap;html=1;" vertex="1" parent="1">
          <mxGeometry x="370" y="400" width="170" height="90" as="geometry" />
        </mxCell>
        <mxCell id="iAdYFZtK8A0-VhXGKXnv-27" value="IO/APIC" style="rounded=0;whiteSpace=wrap;html=1;" vertex="1" parent="1">
          <mxGeometry x="410" y="420" width="120" height="50" as="geometry" />
        </mxCell>
        <mxCell id="iAdYFZtK8A0-VhXGKXnv-28" value="" style="endArrow=classic;html=1;strokeWidth=2;entryX=0;entryY=0.25;entryDx=0;entryDy=0;exitX=-0.006;exitY=0.367;exitDx=0;exitDy=0;exitPerimeter=0;" edge="1" parent="1" source="iAdYFZtK8A0-VhXGKXnv-26" target="iAdYFZtK8A0-VhXGKXnv-27">
          <mxGeometry width="50" height="50" relative="1" as="geometry">
            <mxPoint x="280" y="460" as="sourcePoint" />
            <mxPoint x="330" y="410" as="targetPoint" />
          </mxGeometry>
        </mxCell>
        <mxCell id="iAdYFZtK8A0-VhXGKXnv-29" value="" style="endArrow=classic;html=1;strokeWidth=2;entryX=0;entryY=0.25;entryDx=0;entryDy=0;exitX=-0.006;exitY=0.367;exitDx=0;exitDy=0;exitPerimeter=0;" edge="1" parent="1">
          <mxGeometry width="50" height="50" relative="1" as="geometry">
            <mxPoint x="370" y="460.53" as="sourcePoint" />
            <mxPoint x="411.02" y="460" as="targetPoint" />
          </mxGeometry>
        </mxCell>
        <mxCell id="iAdYFZtK8A0-VhXGKXnv-30" value="&lt;font style=&quot;font-size: 14px&quot;&gt;External&lt;br&gt;Interrupts&lt;/font&gt;" style="text;html=1;align=center;verticalAlign=middle;resizable=0;points=[];autosize=1;" vertex="1" parent="1">
          <mxGeometry x="300" y="425" width="70" height="40" as="geometry" />
        </mxCell>
        <mxCell id="iAdYFZtK8A0-VhXGKXnv-32" value="" style="endArrow=classic;startArrow=classic;html=1;strokeWidth=2;entryX=0.25;entryY=1;entryDx=0;entryDy=0;" edge="1" parent="1">
          <mxGeometry width="50" height="50" relative="1" as="geometry">
            <mxPoint x="460" y="420" as="sourcePoint" />
            <mxPoint x="460" y="360" as="targetPoint" />
          </mxGeometry>
        </mxCell>
        <mxCell id="iAdYFZtK8A0-VhXGKXnv-33" value="&lt;font style=&quot;font-size: 14px&quot;&gt;Interrupt&lt;br&gt;Message&lt;/font&gt;" style="text;html=1;align=center;verticalAlign=middle;resizable=0;points=[];autosize=1;" vertex="1" parent="1">
          <mxGeometry x="379" y="360" width="70" height="40" as="geometry" />
        </mxCell>
        <mxCell id="iAdYFZtK8A0-VhXGKXnv-34" value="&lt;font style=&quot;font-size: 14px&quot;&gt;System chip set&lt;/font&gt;" style="text;html=1;align=center;verticalAlign=middle;resizable=0;points=[];autosize=1;" vertex="1" parent="1">
          <mxGeometry x="400" y="500" width="110" height="20" as="geometry" />
        </mxCell>
      </root>
    </mxGraphModel>
  </diagram>
</mxfile>
